Coordinates
version=1
nRows=18
nColumns=63
inDegrees=yes

Units are S.I. units (second, meters, Newtons, ...)
If the header above contains a line with 'inDegrees', this indicates whether rotational values are in degrees (yes) or radians (no).

endheader
time	pelvis_tilt	pelvis_list	pelvis_rotation	pelvis_tx	pelvis_ty	pelvis_tz	hip_flexion_r	hip_adduction_r	hip_rotation_r	knee_angle_r	knee_angle_r_beta	ankle_angle_r	subtalar_angle_r	mtp_angle_r	hip_flexion_l	hip_adduction_l	hip_rotation_l	knee_angle_l	knee_angle_l_beta	ankle_angle_l	subtalar_angle_l	mtp_angle_l	L5_S1_Flex_Ext	L5_S1_Lat_Bending	L5_S1_axial_rotation	L4_L5_Flex_Ext	L4_L5_Lat_Bending	L4_L5_axial_rotation	L3_L4_Flex_Ext	L3_L4_Lat_Bending	L3_L4_axial_rotation	L2_L3_Flex_Ext	L2_L3_Lat_Bending	L2_L3_axial_rotation	L1_L2_Flex_Ext	L1_L2_Lat_Bending	L1_L2_axial_rotation	L1_T12_Flex_Ext	L1_T12_Lat_Bending	L1_T12_axial_rotation	Abs_r3	Abs_r2	Abs_r1	Abs_t1	Abs_t2	neck_flexion	neck_bending	neck_rotation	arm_flex_r	arm_add_r	arm_rot_r	elbow_flex_r	pro_sup_r	wrist_flex_r	wrist_dev_r	arm_flex_l	arm_add_l	arm_rot_l	elbow_flex_l	pro_sup_l	wrist_flex_l	wrist_dev_l
3.296296	2.036546	0.237376	73.826614	0.243335	0.814059	0.741851	-3.230554	1.085715	-2.358431	8.305216	0.144953	30.271097	16.128568	0.000000	-3.596941	-1.097293	-7.667076	8.821621	0.153966	32.210822	-9.633377	0.000000	-0.107916	1.105163	-0.376441	-0.200411	1.469867	-0.399968	-0.177296	2.687094	-0.399968	-0.123338	2.687094	-0.329386	-0.100211	2.253649	-0.305858	-0.061663	1.711898	-0.282331	-0.770836	12.501830	-2.093651	0.000000	0.000000	19.719606	0.043988	42.103887	2.469583	-20.264131	89.130342	7.716517	4.198089	-6.746184	-6.427176	89.487879	-32.395485	27.755719	77.923538	75.662483	-13.261644	13.943968
3.314815	2.569410	0.661690	74.233288	0.243082	0.813428	0.742915	-3.765848	1.583999	-2.581869	8.318245	0.145181	30.534486	16.119052	0.000000	-4.298047	-1.452811	-7.109659	8.426689	0.147073	32.403025	-10.087698	0.000000	-0.140347	1.101457	-0.214385	-0.260639	1.464937	-0.227784	-0.230577	2.678082	-0.227784	-0.160403	2.678082	-0.187587	-0.130326	2.246090	-0.174188	-0.080194	1.706156	-0.160789	-1.002487	12.459898	-1.192344	0.000000	0.000000	19.141912	-0.745818	40.928958	2.257278	-20.280683	89.132118	7.529461	4.276179	-6.462181	-5.502735	90.414177	-29.504321	36.484544	85.550612	73.146436	-8.308480	18.638394
3.333333	3.066299	1.051233	74.652648	0.242856	0.812777	0.744142	-4.219639	2.068487	-2.876981	8.361727	0.145940	30.806248	16.127998	0.000000	-4.887762	-1.820110	-6.660931	8.137592	0.142028	32.596162	-10.454693	0.000000	-0.173686	1.095946	-0.045721	-0.322553	1.457608	-0.048578	-0.285349	2.664682	-0.048578	-0.198506	2.664682	-0.040006	-0.161285	2.234852	-0.037148	-0.099244	1.697620	-0.034291	-1.240625	12.397557	-0.254286	0.000000	0.000000	18.592381	-1.513049	39.503371	2.074818	-20.262969	89.492337	7.272131	4.307051	-6.171926	-4.596195	90.500326	-26.939525	43.603334	93.051829	71.002461	-4.012656	22.689136
3.351852	3.518344	1.401248	75.096039	0.242654	0.812146	0.745507	-4.595658	2.531236	-3.225888	8.420533	0.146966	31.059056	16.124628	0.000000	-5.356729	-2.190682	-6.295804	7.953630	0.138817	32.786318	-10.729539	0.000000	-0.206981	1.088135	0.117220	-0.384384	1.447219	0.124546	-0.340049	2.645691	0.124546	-0.236558	2.645691	0.102568	-0.192202	2.218925	0.095241	-0.118269	1.685521	0.087915	-1.478442	12.309200	0.651943	0.000000	0.000000	18.044650	-2.156660	37.932484	1.931839	-20.212934	89.867860	7.008850	4.287317	-5.867645	-3.720894	90.020361	-24.705488	49.075651	100.250581	69.532277	-0.347972	25.625567
3.370370	3.911554	1.699835	75.526694	0.242497	0.811563	0.746964	-4.880905	2.954334	-3.592656	8.493535	0.148240	31.281119	16.102226	0.000000	-5.707855	-2.543380	-6.013106	7.843084	0.136888	32.968773	-10.923676	0.000000	-0.237608	1.077646	0.272188	-0.441262	1.433269	0.289200	-0.390366	2.620189	0.289200	-0.271562	2.620189	0.238165	-0.220643	2.197536	0.221153	-0.135769	1.669274	0.204141	-1.697209	12.190549	1.513829	0.000000	0.000000	17.502507	-2.687292	36.258070	1.825787	-20.139336	90.111128	6.783381	4.227393	-5.543684	-2.930530	89.092051	-22.736400	52.867596	107.019951	68.709806	2.765411	27.502647
3.388889	4.231828	1.977585	75.939533	0.242391	0.811053	0.748542	-5.104909	3.313463	-3.968232	8.576649	0.149691	31.484722	16.063322	0.000000	-5.965988	-2.854152	-5.800659	7.802569	0.136181	33.167215	-11.019201	0.000000	-0.270403	1.060512	0.414742	-0.502165	1.410481	0.440664	-0.444244	2.578529	0.440664	-0.309043	2.578529	0.362900	-0.251096	2.162596	0.336978	-0.154508	1.642733	0.311057	-1.931459	11.996725	2.306673	0.000000	0.000000	17.019578	-3.015574	34.423719	1.770169	-20.014009	90.257862	6.593411	4.116446	-5.194440	-2.269494	87.749931	-20.987479	55.087932	113.163366	68.370446	5.554335	28.507042
3.407407	4.481099	2.209133	76.286550	0.242323	0.810639	0.750142	-5.248483	3.605300	-4.318867	8.667464	0.151276	31.656530	16.021806	0.000000	-6.134643	-3.113505	-5.649109	7.791264	0.135983	33.371693	-11.050381	0.000000	-0.299729	1.040652	0.541480	-0.556627	1.384068	0.575322	-0.492425	2.530242	0.575322	-0.342561	2.530242	0.473795	-0.278329	2.122098	0.439952	-0.171265	1.611970	0.406110	-2.140937	11.772068	3.011547	0.000000	0.000000	16.591702	-3.254751	32.530274	1.747498	-19.870183	90.292095	6.463019	3.965533	-4.819760	-1.817632	85.863217	-19.535436	55.950203	118.503169	68.443079	8.236638	28.813201
3.425926	4.674122	2.378049	76.537208	0.242301	0.810325	0.751691	-5.310379	3.841835	-4.605937	8.756191	0.152824	31.784127	15.974780	0.000000	-6.222213	-3.325756	-5.517363	7.787472	0.135917	33.571888	-11.085219	0.000000	-0.324142	1.021951	0.644462	-0.601965	1.359195	0.684741	-0.532533	2.484771	0.684741	-0.370462	2.484771	0.563904	-0.300999	2.083962	0.523625	-0.185215	1.583002	0.483347	-2.315316	11.560512	3.584305	0.000000	0.000000	16.233815	-3.378207	30.751363	1.757833	-19.731904	90.155616	6.419060	3.837827	-4.458001	-1.605469	83.469066	-18.481337	55.748996	122.818923	69.040452	11.011995	28.463488
3.444444	4.805797	2.466136	76.688735	0.242324	0.810077	0.753114	-5.283672	4.018079	-4.836096	8.834400	0.154189	31.869892	15.932810	0.000000	-6.220203	-3.485031	-5.401102	7.789389	0.135950	33.769628	-11.118450	0.000000	-0.340707	1.005306	0.714583	-0.632727	1.337057	0.759245	-0.559747	2.444300	0.759245	-0.389394	2.444300	0.625260	-0.316380	2.050019	0.580599	-0.194680	1.557218	0.535938	-2.433634	11.372219	3.974298	0.000000	0.000000	15.998323	-3.438026	29.126941	1.800798	-19.604629	89.893507	6.462087	3.735127	-4.137404	-1.637914	80.679137	-17.893703	54.801507	125.990701	70.367188	13.869267	27.314353
3.462963	4.874938	2.459065	76.740100	0.242399	0.809857	0.754347	-5.161613	4.132236	-5.031891	8.903529	0.155396	31.924773	15.932050	0.000000	-6.126107	-3.588425	-5.284244	7.794287	0.136036	33.942018	-11.190455	0.000000	-0.346462	0.991645	0.748419	-0.643415	1.318888	0.795195	-0.569203	2.411085	0.795195	-0.395972	2.411085	0.654866	-0.321725	2.022162	0.608090	-0.197969	1.536058	0.561314	-2.474746	11.217684	4.162480	0.000000	0.000000	15.903319	-3.478729	27.719112	1.872074	-19.494250	89.542475	6.585452	3.639491	-3.880126	-1.855989	77.497439	-17.759996	53.207143	128.163597	72.489434	16.628040	25.390404
3.481481	4.885269	2.369358	76.662850	0.242574	0.809645	0.755394	-4.962960	4.184308	-5.140282	8.962365	0.156423	31.946700	15.950029	0.000000	-5.964741	-3.633470	-5.212390	7.805209	0.136227	34.076959	-11.307808	0.000000	-0.343212	0.980733	0.755934	-0.637379	1.304375	0.803180	-0.563863	2.384555	0.803180	-0.392257	2.384555	0.661442	-0.318707	1.999911	0.614196	-0.196111	1.519156	0.566950	-2.451531	11.094249	4.204277	0.000000	0.000000	15.914685	-3.434844	26.668802	1.957664	-19.403789	89.077169	6.780791	3.577128	-3.694407	-2.190539	73.889329	-18.013832	50.930675	129.623254	75.111501	19.208624	23.118269
3.500000	4.836469	2.227495	76.435150	0.242886	0.809423	0.756337	-4.709717	4.165034	-5.120263	9.029389	0.157593	31.951060	15.971729	0.000000	-5.768889	-3.612305	-5.250692	7.830094	0.136661	34.166571	-11.446829	0.000000	-0.335282	0.970232	0.754937	-0.622653	1.290409	0.802121	-0.550835	2.359022	0.802121	-0.383194	2.359022	0.660570	-0.311343	1.978497	0.613386	-0.191580	1.502889	0.566203	-2.394888	10.975459	4.198734	0.000000	0.000000	16.000265	-3.269003	26.006157	2.036050	-19.323968	88.451717	7.029800	3.537809	-3.562081	-2.560980	69.918516	-18.568334	48.002803	130.565177	78.094859	21.612868	20.705036
3.518519	4.737752	2.037879	76.070450	0.243303	0.809168	0.757221	-4.404191	4.082390	-4.991733	9.113285	0.159057	31.931865	16.018161	0.000000	-5.544166	-3.535510	-5.411289	7.869601	0.137350	34.186480	-11.603725	0.000000	-0.322616	0.960982	0.750663	-0.599131	1.278107	0.797579	-0.530026	2.336532	0.797579	-0.368718	2.336532	0.656830	-0.299581	1.959635	0.609913	-0.184343	1.488562	0.562997	-2.304416	10.870824	4.174960	0.000000	0.000000	16.115140	-2.989777	25.747805	2.097210	-19.264273	87.644297	7.320311	3.510176	-3.452238	-2.926745	65.611529	-19.370453	44.445324	131.200880	81.198304	23.719170	18.469660
3.537037	4.616060	1.817594	75.564955	0.243807	0.808898	0.758127	-4.070787	3.961027	-4.712612	9.205697	0.160670	31.857407	16.052161	0.000000	-5.314335	-3.423173	-5.711201	7.919277	0.138217	34.112938	-11.800343	0.000000	-0.307368	0.954866	0.761463	-0.570813	1.269972	0.809054	-0.504975	2.321661	0.809054	-0.351291	2.321661	0.666280	-0.285422	1.947162	0.618688	-0.175630	1.479087	0.571097	-2.195499	10.801633	4.235026	0.000000	0.000000	16.235063	-2.621879	25.770104	2.113530	-19.246204	86.663678	7.648679	3.495323	-3.345382	-3.265312	61.184783	-20.323764	40.458198	131.472485	84.389423	25.864866	16.084738
3.555556	4.475566	1.608289	74.943918	0.244378	0.808639	0.759098	-3.745981	3.798100	-4.268634	9.323482	0.162725	31.734997	16.043771	0.000000	-5.122794	-3.266984	-6.087447	7.963052	0.138981	33.910389	-12.094622	0.000000	-0.295263	0.949296	0.792931	-0.548332	1.262563	0.842489	-0.485087	2.308118	0.842489	-0.337456	2.308118	0.693814	-0.274181	1.935804	0.644256	-0.168713	1.470459	0.594698	-2.109032	10.738623	4.410043	0.000000	0.000000	16.411088	-2.183120	25.883022	2.071803	-19.255689	85.432541	7.998154	3.577216	-3.227928	-3.587067	56.874634	-21.346136	36.384482	131.411832	85.592258	27.160477	13.780101
3.574074	4.330918	1.406569	74.236441	0.244984	0.808412	0.760146	-3.434637	3.616787	-3.641675	9.447970	0.164898	31.535269	15.958275	0.000000	-4.965399	-3.089467	-6.551896	7.984246	0.139351	33.593043	-12.430811	0.000000	-0.284907	0.945740	0.845902	-0.529100	1.257834	0.898770	-0.468073	2.299471	0.898770	-0.325620	2.299471	0.740164	-0.264564	1.928552	0.687295	-0.162796	1.464951	0.634426	-2.035060	10.698395	4.704651	0.000000	0.000000	16.607683	-1.699692	26.024970	1.963319	-19.301985	84.085160	8.353794	3.739126	-3.110341	-3.933199	52.776370	-22.378394	32.335131	130.935533	86.019206	28.186607	11.451886
3.592593	4.172399	1.224255	73.480104	0.245605	0.808227	0.761258	-3.147698	3.410798	-2.860373	9.566522	0.166967	31.275052	15.816177	0.000000	-4.845218	-2.883976	-7.078325	7.970166	0.139106	33.184257	-12.780175	0.000000	-0.277762	0.941491	0.918278	-0.515831	1.252183	0.975671	-0.456334	2.289142	0.975671	-0.317454	2.289142	0.803494	-0.257929	1.919889	0.746101	-0.158713	1.458370	0.688709	-1.984023	10.650336	5.107189	0.000000	0.000000	16.871988	-1.219760	26.054227	1.781119	-19.367288	82.687609	8.686307	4.007678	-2.992573	-4.335139	48.903423	-23.360678	28.446994	130.055725	85.193163	28.683609	9.439818
3.611111	4.005139	1.069987	72.685930	0.246216	0.808116	0.762410	-2.892969	3.182920	-1.969333	9.675844	0.168875	30.982523	15.679869	0.000000	-4.769007	-2.653882	-7.650572	7.918217	0.138199	32.707433	-13.147344	0.000000	-0.276478	0.936718	1.011970	-0.513447	1.245836	1.075218	-0.454226	2.277537	1.075218	-0.315987	2.277537	0.885474	-0.256737	1.910156	0.822226	-0.157979	1.450977	0.758978	-1.974854	10.596347	5.628274	0.000000	0.000000	17.277287	-0.865609	25.804067	1.531525	-19.447450	81.512590	8.944320	4.331437	-2.869998	-4.835302	45.108461	-24.162611	24.540840	128.745625	83.263395	29.125370	8.026105
